# xmcd
#
# Track frame offsets:
#	150
#	31645
#	85847
#	131005
#	178275
#	225467
#	261285
#	294162
#
# Disc length: 4588 seconds
#
# Revision: 3
# Processed by: cddbd v1.5.1PL2 Copyright (c) Steve Scherf et al.
# Submitted via: audiograbber 1.83.01
#
DISCID=6311ea08
DTITLE=Pat Martino - Live at Yoshi's
DYEAR=2000
DGENRE=Jazz
TTITLE0=Oleo
TTITLE1=All Blues
TTITLE2=Mac Tough
TTITLE3=Welcome to a Prayer
TTITLE4=El Hombre
TTITLE5=Recollection
TTITLE6=Blue in Green
TTITLE7=Catch
EXTD=Pat Martino - guitar\nJoey DeFrancesco - organ\nBilly Hart - drums\n\nrec.
EXTD=December 15-17, 2000
EXTT0=
EXTT1=
EXTT2=
EXTT3=
EXTT4=
EXTT5=
EXTT6=
EXTT7=
PLAYORDER=
